<svg xmlns="http://www.w3.org/2000/svg" xmlns:xlink="http://www.w3.org/1999/xlink" width="36" height="36" viewBox="0 0 36 36">
    <defs>
        <circle id="a" cx="18" cy="18" r="18"/>
        <path id="c" d="M0 36h36V0H0z"/>
    </defs>
    <g fill="none" fill-rule="evenodd">
        <mask id="b" fill="#fff">
            <use xlink:href="#a"/>
        </mask>
        <g mask="url(#b)">
            <mask id="d" fill="#fff">
                <use xlink:href="#c"/>
            </mask>
            <use fill="#EEE" xlink:href="#c"/>
            <path stroke="#000" stroke-linecap="round" stroke-linejoin="round" stroke-width=".525" d="M15.058 10.596c-.517-.61-1.96-1.12-1.99-1.113-.078.02-.194.254-.236.314a9.019 9.019 0 0 0-.467.75 5.218 5.218 0 0 0-.418.914c-.244.746-1.066 1.123-1.607 1.63-1.867 1.754-2.972 4.282-2.801 6.842.121 1.829.795 3.59 1.723 5.176.11.187.225.38.253.595.028.22-.04.44-.107.65-.873 2.732-2.487 5.157-2.982 7.985-.467 2.675-.417 5.682-.269 7.744M30.34 42.084c-.006-2.107-.124-5.342-.508-7.233-.587-2.888-3.26-8.927-3.231-9.147.027-.216.143-.408.252-.595.929-1.586 1.602-3.347 1.724-5.176.171-2.56-1.085-6.804-4.746-8.76 0 0-1.366-2.052-1.644-2.052-.158 0-1.244.643-1.971 1.41 0 0-1.459-.161-2.156-.161-.944 0-1.893.077-2.812.295-.038.01-.076.018-.114.026" mask="url(#d)"/>
            <g fill="#000" mask="url(#d)">
                <path d="M15.317 18.808c.565 0 .566-.879 0-.879s-.567.88 0 .88M21.146 18.808c.565 0 .567-.879 0-.879-.565 0-.566.88 0 .88M18.205 19.434c.025.807-.65 1.381-1.421 1.063-.343-.141-.493.417-.154.556 1.117.46 2.188-.472 2.151-1.62-.012-.37-.589-.37-.576 0"/>
                <path d="M18.059 20.617c.554.574 1.355.674 2.045.282.322-.184.032-.682-.292-.498-.469.267-.97.196-1.345-.192-.258-.268-.666.14-.408.408M23.747 19.713c.583-.092 1.166-.185 1.75-.276.364-.058.21-.614-.154-.556l-1.75.276c-.365.057-.21.613.154.556M23.701 20.898l1.952-.042c.37-.007.372-.584 0-.576l-1.952.042c-.37.008-.372.584 0 .576M13.151 20.352c-.776.089-1.553.14-2.333.156-.371.007-.372.584 0 .576.78-.014 1.557-.066 2.333-.155.365-.042.37-.619 0-.577M13.291 19.059l-2.484-.068c-.37-.01-.37.567 0 .577l2.484.067c.371.01.371-.566 0-.576"/>
            </g>
        </g>
    </g>
</svg>
